<svg xmlns="http://www.w3.org/2000/svg" viewBox="0 0 64 64" role="img" aria-labelledby="title">
  <title id="title">Blue and green dreamcatcher</title>
  <rect x="2" y="2" width="60" height="60" rx="17" fill="#FAF7F0" stroke="#1E1A17" stroke-width="4"/>
  <g fill="none" stroke-linecap="round" stroke-linejoin="round">
    <circle cx="32" cy="24" r="18" stroke="#1E1A17" stroke-width="5"/>
    <circle cx="32" cy="24" r="17" stroke="#1E4ED8" stroke-width="2.7"/>
    <g stroke="#496E4C" stroke-width="1.5">
      <path d="M32 7 36.5 15.5 46.5 13.5 42 22 50 28 40 29 39.5 39 32 33 24.5 39 24 29 14 28 22 22 17.5 13.5 27.5 15.5Z"/>
      <path d="M32 7 32 33M17.5 13.5 39.5 39M46.5 13.5 24.5 39M14 28 50 28M27.5 15.5 40 29M36.5 15.5 24 29"/>
    </g>
    <path d="M25 41v3M32 42v4M39 41v3" stroke="#1E1A17" stroke-width="1.3"/>
  </g>
  <circle cx="32" cy="24" r="3" fill="#F6AE2D" stroke="#1E1A17" stroke-width="1.2"/>
  <g stroke="#1E1A17" stroke-width="1.1" stroke-linejoin="round">
    <path d="M24 43c-3 3-3.5 8-1 11.5 2.5-.3 4.2-2.7 4-5.3-.2-2.2-1.2-4.2-3-6.2Z" fill="#1E4ED8"/>
    <path d="M32 45c-4 3.2-4.4 8.7-.8 12.5 3.4-2 5-5 4.3-8.1-.4-1.8-1.6-3.2-3.5-4.4Z" fill="#496E4C"/>
    <path d="M40 43c3 3 3.5 8 1 11.5-2.5-.3-4.2-2.7-4-5.3.2-2.2 1.2-4.2 3-6.2Z" fill="#1E4ED8"/>
  </g>
  <path d="M24 44.5 25 52M32 46.5l.5 9M40 44.5 39 52" fill="none" stroke="#FAF7F0" stroke-width=".8" stroke-linecap="round"/>
</svg>
